# xmcd
#
# Track frame offsets: 
#        150
#        22275
#        37875
#        50813
#        67726
#        81151
#        92645
#        103989
#        115914
#        138152
#        160709
#        175016
#        187391
#        201041
#
# Disc length: 2906 seconds
#
# Revision: 0
# Processed by: cddbd v1.5.2PL0 Copyright (c) Steve Scherf et al.
# Submitted via: ExactAudioCopy v1.0b6
#
DISCID=bf0b580e
DTITLE=Tina Turner - The Many Faces Of Tina Turner -The Ike Years
DYEAR=1900
DGENRE=Rhythmic Soul
TTITLE0=Proud Mary
TTITLE1=River Deep, Mountain High
TTITLE2=Shame, Shame, Shame
TTITLE3=I've Been Loving You Too Long
TTITLE4=Get Back
TTITLE5=Ain't That A Shame
TTITLE6=Down In The Valley
TTITLE7=Sugar, Sugar
TTITLE8=Nutbush City Limits
TTITLE9=Push
TTITLE10=Baby, Baby Get It On
TTITLE11=Stand By Your Man
TTITLE12=It's Gonna Work Out Fine
TTITLE13=Shake A Hand
EXTD=
EXTT0=
EXTT1=
EXTT2=
EXTT3=
EXTT4=
EXTT5=
EXTT6=
EXTT7=
EXTT8=
EXTT9=
EXTT10=
EXTT11=
EXTT12=
EXTT13=
PLAYORDER=
